<?xml version="1.0" encoding="utf-8"?>
<!-- Generator: Adobe Illustrator 12.0.1, SVG Export Plug-In . SVG Version: 6.00 Build 51448)  -->
<!DOCTYPE svg PUBLIC "-//W3C//DTD SVG 1.1//EN" "http://www.w3.org/Graphics/SVG/1.1/DTD/svg11.dtd" [
	<!ENTITY ns_svg "http://www.w3.org/2000/svg">
	<!ENTITY ns_xlink "http://www.w3.org/1999/xlink">
]>
<svg  version="1.1" id="Ebene_1" xmlns="&ns_svg;" xmlns:xlink="&ns_xlink;" width="1862.362" height="574.399"
	 viewBox="0 0 1862.362 574.399" overflow="visible" enable-background="new 0 0 1862.362 574.399" xml:space="preserve">
<path fill="#58585A" d="M1854.739,221.166c-2.66,2.099-6.223,3.501-10.672,4.339l-75.016,14.063v18.667
	c0.123,5.402,1.397,10.346,3.81,14.813c2.351,4.493,5.724,8.013,10.019,10.75c4.34,2.673,9.539,4.076,15.496,4.136
	c7.295-0.061,13.129-1.525,17.468-4.326c4.251-2.69,7.347-6.284,9.194-10.654c1.839-4.375,2.738-9.071,2.664-13.958
	c0.074-2.875,0.621-5.009,1.725-6.592c1.119-1.588,2.35-2.739,3.797-3.439c1.463-0.622,2.721-1.076,3.81-1.2
	c1.076-0.203,1.636-0.203,1.711-0.203h11.81c3.674-0.044,6.535,0.904,8.635,2.739c2.086,1.9,3.108,4.948,3.174,9.071
	c0,8.449-1.543,16.321-4.436,23.602c-2.941,7.325-7.188,13.736-12.709,19.24c-5.521,5.525-12.26,9.852-20.113,12.947
	c-7.876,3.127-16.818,4.715-26.729,4.758c-12.615-0.109-23.816-2.782-33.307-8.104c-9.583-5.349-17.084-12.586-22.481-21.842
	c-5.336-9.27-8.074-19.818-8.198-31.738v-67.404c0-9.569,1.465-18.406,4.371-26.463c2.879-8.123,7.174-15.183,12.85-21.141
	c5.631-6.024,12.617-10.659,20.863-13.971c8.26-3.36,17.78-5.009,28.563-5.058c8.713,0,16.752,1.244,24.191,3.797
	c7.436,2.474,13.891,6.161,19.492,10.906c5.508,4.776,9.834,10.486,12.93,17.3c3.108,6.703,4.647,14.31,4.713,22.838v25.511
	c0,3.219-0.576,6.271-1.789,9.133C1859.373,216.593,1857.397,219.098,1854.739,221.166 M1827.702,179.039
	c-0.049-5.107-1.279-9.354-3.688-12.713c-2.412-3.361-5.758-5.909-10.019-7.607c-4.247-1.724-9.194-2.518-14.856-2.518
	c-7.299,0.044-13.194,1.49-17.645,4.356c-4.369,2.845-7.545,6.672-9.521,11.417c-1.976,4.758-2.972,10.033-2.923,15.823v19.024
	l58.65-11.417V179.039z M1714.726,280.703c-2.8,7.872-6.844,14.729-12.074,20.564c-5.274,5.834-11.54,10.424-18.839,13.705
	c-7.355,3.254-15.558,4.904-24.624,4.947c-4.745,0-9.336-0.684-13.724-1.957c-4.388-1.341-8.369-3.285-11.933-5.834
	c-3.56-2.536-6.407-5.662-8.63-9.336v3.439c-0.049,3.281-1.076,5.939-2.973,7.916c-1.993,2.037-4.388,3.051-7.298,3.113h-13.331
	c-2.941-0.063-5.354-1.076-7.299-3.113c-1.896-1.977-2.937-4.635-2.998-7.916V61.725c0.062-3.299,1.103-5.962,2.998-7.92
	c1.945-2.038,4.357-3.065,7.299-3.127h14.094c2.91,0.062,5.336,1.089,7.298,3.127c1.896,1.958,2.906,4.621,2.985,7.92v33.85v22.217
	v12.943v6.037v1.49c1.835-2.659,4.433-5.071,7.854-7.232c3.487-2.086,7.545-3.735,12.197-4.948c4.64-1.262,9.569-1.883,14.98-1.883
	c11.981,0,22.327,2.461,31.022,7.422c8.697,5.01,15.369,12.414,20.052,22.261c4.794,9.909,7.126,22.23,7.206,36.95v64.357
	C1718.991,264.396,1717.508,272.893,1714.726,280.703z M1684.311,188.154c0.063-6.284-0.868-11.792-2.844-16.554
	c-1.9-4.837-4.966-8.573-9.133-11.307c-4.216-2.726-9.724-4.048-16.586-4.092c-5.582,0.044-10.358,0.997-14.217,2.844
	c-3.938,1.821-7.047,4.313-9.459,7.422c-2.333,3.096-4.141,6.535-5.194,10.266c-1.09,3.735-1.605,7.563-1.605,11.421v68.948
	c0.062,6.037,1.341,11.293,4.013,15.946c2.584,4.621,6.289,8.229,11.047,10.905c4.824,2.58,10.407,3.921,16.942,3.981
	c5.397,0,10.095-1.071,14.155-3.219c4-2.227,7.157-5.601,9.459-10.173c2.192-4.56,3.422-10.363,3.422-17.441V188.154z
	 M1560.726,288.698c-5.257,10.143-12.691,17.891-22.15,23.24c-9.508,5.26-20.69,7.938-33.431,7.98h-0.78
	c-12.754-0.043-23.91-2.721-33.369-7.98c-9.521-5.35-16.876-13.098-22.213-23.24c-5.273-10.099-7.95-22.389-8.013-36.95v-57.125
	c0.063-16.673,2.801-30.194,8.137-40.619c5.318-10.328,12.771-17.952,22.34-22.697c9.564-4.837,20.735-7.188,33.492-7.109
	c12.789-0.079,23.941,2.271,33.523,7.109c9.583,4.745,17.022,12.37,22.328,22.697c5.366,10.425,8.087,23.945,8.148,40.619v57.125
	C1568.677,266.31,1566,278.6,1560.726,288.698z M1534.078,194.623c0.062-7.029-0.696-13.516-2.346-19.289
	c-1.649-5.772-4.64-10.407-8.886-13.829c-4.247-3.484-10.297-5.261-18.107-5.305c-7.791,0.044-13.815,1.821-18.063,5.305
	c-4.277,3.422-7.263,8.057-8.898,13.829c-1.649,5.772-2.395,12.26-2.333,19.289v57.125c-0.062,4.652,0.375,9.089,1.199,13.397
	c0.825,4.278,2.271,8.136,4.37,11.541c2.161,3.439,5.071,6.178,8.882,8.154c3.753,2.024,8.634,3.035,14.469,3.095
	c6.036-0.061,11.063-1.071,14.918-3.095c3.938-1.976,6.924-4.714,9.089-8.154c2.16-3.404,3.669-7.263,4.512-11.541
	c0.824-4.308,1.256-8.745,1.194-13.397V194.623z M1436.692,153.012c-1.959,2.02-4.617,3.109-7.916,3.188
	c-8.493,0.044-15.435,0.997-20.753,2.844c-5.336,1.821-9.459,4.313-12.308,7.422c-2.801,3.096-4.775,6.535-5.848,10.266
	c-1.01,3.735-1.525,7.563-1.446,11.421v118.078c-0.079,3.281-1.089,5.939-2.989,7.916c-1.958,2.037-4.401,3.051-7.313,3.113h-14.076
	c-2.941-0.063-5.336-1.076-7.298-3.113c-1.914-1.977-2.924-4.635-3.003-7.916V137.904c0.079-3.312,1.089-5.976,3.003-7.934
	c1.962-2.037,4.356-3.064,7.298-3.126h14.076c2.911,0.062,5.354,1.089,7.313,3.126c1.9,1.958,2.91,4.622,2.989,7.934v1.12v1.151
	c2.894-2.911,5.569-5.446,8.105-7.484c2.549-2.037,5.194-3.686,8.057-4.961c2.88-1.261,6.222-2.13,10.037-2.708
	c3.871-0.573,8.567-0.825,14.155-0.825c3.299,0.049,5.957,1.059,7.916,2.955c2.055,1.994,3.082,4.405,3.144,7.312v11.046
	C1439.774,148.421,1438.747,150.97,1436.692,153.012z M1326.133,280.703c-2.787,7.872-6.721,14.729-11.73,20.564
	c-5.071,5.834-11.064,10.424-17.971,13.705c-6.923,3.254-14.53,4.904-22.852,4.947c-4.775,0-9.582-0.684-14.486-1.957
	c-4.868-1.341-9.379-3.285-13.44-5.834c-3.996-2.536-7.171-5.662-9.38-9.336v84.161c-0.063,3.286-1.09,5.958-3.003,7.934
	c-1.958,2.042-4.388,3.034-7.28,3.095h-13.35c-2.893-0.061-5.336-1.053-7.293-3.095c-1.896-1.976-2.911-4.647-2.973-7.934V137.904
	c0.062-3.312,1.076-5.976,2.973-7.934c1.957-2.037,4.4-3.064,7.293-3.126h14.099c2.924,0.062,5.336,1.089,7.312,3.126
	c1.896,1.958,2.924,4.622,2.955,7.934v2.271c1.865-2.721,4.462-5.256,7.871-7.687c3.515-2.456,7.559-4.432,12.229-5.958
	c4.591-1.508,9.552-2.284,14.967-2.333c11.977,0,22.322,2.461,31.019,7.466c8.696,4.966,15.368,12.37,20.083,22.217
	c4.744,9.909,7.108,22.23,7.156,36.95v64.357C1330.283,264.396,1328.867,272.893,1326.133,280.703z M1295.669,188.154
	c0.079-6.284-0.899-11.792-2.875-16.554c-1.9-4.837-4.917-8.573-9.119-11.307c-4.186-2.726-9.706-4.048-16.568-4.092
	c-5.569,0.044-10.345,0.997-14.218,2.844c-3.938,1.821-7.033,4.313-9.445,7.422c-2.363,3.096-4.149,6.535-5.208,10.266
	c-1.089,3.735-1.587,7.563-1.587,11.421v68.948c0.062,6.037,1.336,11.355,4.013,15.946c2.584,4.621,6.271,8.229,11.028,10.905
	c4.807,2.58,10.426,3.921,16.943,3.981c5.384,0,10.111-1.071,14.155-3.219c4.013-2.227,7.188-5.601,9.446-10.173
	c2.24-4.511,3.435-10.363,3.435-17.441V188.154z M1169.848,89.476c-1.979,2.024-4.387,3.034-7.315,3.096h-17.529
	c-2.897-0.062-5.305-1.072-7.28-3.096c-1.9-1.976-2.929-4.635-3.003-7.934V61.725c0.074-3.299,1.103-5.962,3.003-7.92
	c1.976-2.038,4.383-3.065,7.28-3.127h17.529c2.929,0.062,5.336,1.089,7.315,3.127c1.896,1.958,2.924,4.621,2.986,7.92v19.817
	C1172.772,84.841,1171.745,87.5,1169.848,89.476z M1146.542,126.844h14.081c2.937,0.062,5.349,1.089,7.324,3.126
	c1.9,1.958,2.911,4.622,2.955,7.934v168.327c-0.044,3.281-1.134,5.939-3.158,7.916c-2.037,2.037-4.572,3.051-7.483,3.113h-13.719
	c-2.893-0.063-5.336-1.076-7.298-3.113c-1.914-1.977-2.906-4.635-2.968-7.916V137.904c0.062-3.312,1.054-5.976,2.968-7.934
	C1141.207,127.934,1143.65,126.906,1146.542,126.844z M1101.488,312.639c-1.085,1.509-2.302,2.615-3.7,3.22
	c-1.402,0.701-2.598,1.089-3.674,1.217c-1.01,0.123-1.601,0.186-1.662,0.186h-12.93c-0.062,0-0.652-0.063-1.711-0.186
	c-1.089-0.128-2.363-0.516-3.828-1.217c-1.445-0.604-2.658-1.711-3.792-3.22c-1.076-1.556-1.649-3.687-1.711-6.407V190.831
	c0.062-6.288-0.393-12.056-1.464-17.255c-1.09-5.226-3.236-9.411-6.412-12.585c-3.219-3.096-7.934-4.745-14.23-4.789
	c-3.611,0.044-7.219,1.12-10.83,3.281c-3.625,2.147-6.611,5.009-9.022,8.621c-2.413,3.559-3.625,7.435-3.749,11.682v126.447
	c-0.049,2.721-0.621,4.852-1.636,6.407c-1.103,1.509-2.302,2.615-3.7,3.22c-1.385,0.701-2.598,1.089-3.673,1.217
	c-1.01,0.123-1.601,0.186-1.649,0.186h-13.331c-0.062,0-0.622-0.063-1.649-0.186c-1.089-0.128-2.284-0.516-3.687-1.217
	c-1.397-0.604-2.598-1.711-3.687-3.22c-1.01-1.556-1.588-3.687-1.649-6.407V179.784c0.062-3.545-0.64-7.108-1.958-10.671
	c-1.402-3.625-3.611-6.659-6.861-9.115c-3.175-2.43-7.422-3.722-12.881-3.797c-5.539,0.044-10.13,1.12-13.971,3.281
	c-3.797,2.086-6.844,4.886-9.133,8.308c-2.363,3.422-4,7.17-5.089,11.17c-1.01,4.062-1.509,7.995-1.509,11.871v115.401
	c-0.061,2.721-0.635,4.852-1.724,6.407c-1.089,1.509-2.351,2.615-3.797,3.22c-1.446,0.701-2.721,1.089-3.827,1.217
	c-1.072,0.123-1.632,0.186-1.693,0.186h-12.948c-0.075,0-0.635-0.063-1.663-0.186c-1.071-0.128-2.271-0.516-3.673-1.217
	c-1.398-0.604-2.61-1.711-3.687-3.22c-1.028-1.556-1.587-3.687-1.649-6.407V137.904c0.062-3.312,1.076-5.976,2.972-7.934
	c1.976-2.037,4.388-3.064,7.298-3.126h14.107c2.91,0.062,5.323,1.089,7.281,3.126c1.9,1.958,2.941,4.622,3.002,7.934v0.701v1.262
	v0.697c2.32-3.762,5.059-6.796,8.247-9.005c3.175-2.165,6.474-3.828,9.847-4.899c3.361-1.059,6.518-1.791,9.508-2.042
	c2.999-0.309,5.459-0.498,7.436-0.419c3.606-0.079,7.342,0.499,11.293,1.587c3.934,1.121,7.872,3.034,11.668,5.711
	c3.811,2.659,7.313,6.346,10.549,10.967c3.436-5.009,7.497-8.886,12.383-11.496c4.807-2.646,9.768-4.498,14.856-5.446
	c5.133-0.966,9.769-1.402,13.878-1.323c7.62-0.079,14.791,0.887,21.577,2.893c6.813,2.055,12.833,5.477,18.106,10.407
	c5.257,4.966,9.38,11.761,12.445,20.458c3.033,8.634,4.56,19.602,4.635,32.875v115.401
	C1103.062,308.952,1102.484,311.083,1101.488,312.639z M867.079,314.147c-1.975,2.037-4.37,3.051-7.311,3.113H846.45
	c-2.924-0.063-5.349-1.076-7.294-3.113c-1.9-1.977-2.928-4.635-2.989-7.916v-3.439c-2.739,3.797-6.112,6.984-10.033,9.503
	c-4,2.554-8.185,4.468-12.696,5.711c-4.449,1.274-8.807,1.913-13.084,1.913c-11.977-0.043-22.508-2.782-31.597-8.104
	c-9.084-5.415-16.113-13.097-21.202-23.116c-5.089-9.94-7.687-21.891-7.73-35.799V137.904c0.044-3.312,1.071-5.976,2.968-7.934
	c1.98-2.037,4.375-3.064,7.316-3.126h14.076c2.911,0.062,5.323,1.089,7.298,3.126c1.914,1.958,2.924,4.622,2.985,7.934v117.671
	c0.062,7.748,1.539,13.957,4.309,18.715c2.8,4.776,6.363,8.26,10.8,10.425c4.445,2.209,9.221,3.312,14.217,3.219
	c6.271,0,11.744-1.182,16.488-3.673c4.714-2.438,8.449-6.02,11.047-10.795c2.659-4.807,4.013-10.795,4.074-17.891V137.904
	c0.062-3.312,1.09-5.976,2.973-7.934c1.963-2.037,4.405-3.064,7.312-3.126h14.081c2.941,0.062,5.336,1.089,7.311,3.126
	c1.896,1.958,2.924,4.622,3.004,7.934v168.327C870.003,309.513,868.975,312.171,867.079,314.147z M738.859,307.925
	c-0.123,1.09-0.577,2.363-1.274,3.828c-0.622,1.464-1.759,2.707-3.36,3.797c-1.574,1.071-3.797,1.648-6.597,1.711H614.904V61.725
	c0.044-2.726,0.635-4.886,1.662-6.412c1.059-1.508,2.271-2.58,3.674-3.219c1.397-0.732,2.579-1.089,3.668-1.213
	c1.045-0.203,1.587-0.264,1.649-0.203h15.245c0.062-0.062,0.622,0,1.729,0.203c1.072,0.124,2.333,0.481,3.797,1.213
	c1.46,0.639,2.739,1.711,3.797,3.219c1.072,1.526,1.663,3.687,1.711,6.412v219.336h75.792c2.8,0.092,5.022,0.666,6.597,1.68
	c1.601,1.058,2.738,2.271,3.36,3.669c0.697,1.402,1.151,2.615,1.274,3.688c0.142,1.027,0.203,1.573,0.203,1.635v14.5
	C739.062,306.293,739,306.866,738.859,307.925z"/>
<path fill-rule="evenodd" clip-rule="evenodd" fill="#91BD19" d="M176.959,379.147c2.315,57.063,2.271,114.25,6.968,171.093
	c3.687,44.446,17.75,19.835,23.817-11.995c7.872-41.426,48.288-200.73,11.293-225.668c-42.7-28.84-161.62,90.45-195.236,119.462
	c-24.532,21.159-38.833,45.677,1.525,26.618C76.914,434.328,126.432,405.673,176.959,379.147"/>
<path fill-rule="evenodd" clip-rule="evenodd" fill="#9AD4DA" d="M338.923,291.819c48.226-30.52,97.757-59.069,144.678-91.583
	c36.637-25.418,8.29-25.294-22.34-14.636c-39.776,13.891-197.913,58.554-201.07,103.063c-3.612,51.414,159.146,94.74,201.07,109.35
	c30.63,10.641,58.977,10.796,22.34-14.609C436.681,350.89,387.149,322.327,338.923,291.819"/>
<path fill-rule="evenodd" clip-rule="evenodd" fill="#F6A400" d="M182.292,195.236c-50.559-26.508-100.046-55.149-151.65-79.509
	c-40.336-19.042-26.057,5.473-1.521,26.648C61.056,169.924,178.807,284.5,218.91,264.964c46.33-22.574,2.474-185.19-5.83-228.799
	c-6.055-31.826-20.131-56.455-23.817-12.021C184.549,81.018,184.61,138.204,182.292,195.236"/>
<polygon fill="#A9A6A1" points="638.5,542.112 676.583,542.112 676.583,554.526 625.571,554.526 625.571,425.438 638.5,425.438 "/>
<path fill="#A9A6A1" d="M683.348,431.651h11.541v15.17h-11.541V431.651z M694.889,554.522h-11.541v-90.481h11.541V554.522z"/>
<path fill="#A9A6A1" d="M744.693,433.892c-1.557-0.172-4.48-0.34-6.364-0.34c-10.345,0-13.44,4.137-13.44,15.51v15.324h19.804
	v10.685h-19.804v79.452h-11.559V475.07h-11.029v-10.685h11.029v-16.197c0-17.406,7.422-24.982,24.298-24.982
	c2.24,0,4.48,0.172,7.065,0.34V433.892z"/>
<path fill="#A9A6A1" d="M763.003,511.791v8.259c0,18.451,1.711,24.488,17.392,24.488c13.957,0,18.795-3.281,18.795-15.337v-2.77
	h10.844v2.77c0,19.474-9.292,26.882-29.639,26.882c-22.229,0-29.479-9.834-29.479-36.372V498.35
	c0-26.728,7.422-35.843,29.665-35.843c22.217,0,29.453,9.305,29.453,35.843v13.441H763.003z M798.489,501.102v-6.549
	c0-16.021-3.611-21.356-17.75-21.356c-13.957,0-17.736,5.336-17.736,21.356v6.549H798.489z"/>
<path fill="#A9A6A1" d="M905.229,487.493v-2.412c0-8.961-2.924-11.885-11.712-11.885h-5.865c-9.473,0-12.93,2.734-12.93,11.368
	v8.604c0,6.381,3.457,8.276,21.207,10.173c17.238,1.9,21.718,8.104,21.718,19.821v12.057c0,14.143-7.766,20.863-23.787,20.863
	h-10.178c-17.049,0-22.058-5.354-22.058-21.379v-9.128h11.386v5.503c0,10.518,1.199,14.314,11.717,14.314h8.088
	c9.318,0,12.757-2.924,12.757-11.545v-8.445c0-9.305-3.607-10.173-19.99-12.757c-16.365-2.585-22.918-4.652-22.918-17.238v-12.056
	c0-14.125,7.766-20.846,23.787-20.846h8.092c17.066,0,22.058,5.336,22.058,21.361v3.625H905.229z"/>
<path fill="#A9A6A1" d="M973.686,493.688v-1.557c0-13.27-4.295-18.094-15.853-18.094c-14.654,0-16.537,6.209-16.537,24.303v21.547
	c0,18.094,2.068,24.643,17.066,24.643c13.767,0,16.88-5.165,16.88-19.823v-3.606h12.057v3.779c0,22.062-8.775,31.189-28.421,31.189
	c-22.248,0-29.651-9.472-29.651-36.182v-21.361c0-26.729,7.589-36.028,29.818-36.028c18.777,0,26.697,7.761,26.697,26.882v4.309
	H973.686z"/>
<path fill="#A9A6A1" d="M998.188,431.651h11.545v15.17h-11.545V431.651z M1009.733,554.522h-11.545v-90.481h11.545V554.522z"/>
<path fill="#A9A6A1" d="M1035.098,511.791v8.259c0,18.451,1.711,24.488,17.392,24.488c13.953,0,18.795-3.281,18.795-15.337v-2.77
	h10.839v2.77c0,19.474-9.287,26.882-29.634,26.882c-22.229,0-29.479-9.834-29.479-36.372V498.35
	c0-26.728,7.422-35.843,29.665-35.843c22.217,0,29.448,9.305,29.448,35.843v13.441H1035.098z M1070.583,501.102v-6.549
	c0-16.021-3.611-21.356-17.75-21.356c-13.956,0-17.735,5.336-17.735,21.356v6.549H1070.583z"/>
<path fill="#A9A6A1" d="M1106.131,474.563c4.652-8.105,11.902-12.057,22.063-12.057c17.405,0,23.614,9.645,23.614,31.529v60.486
	h-11.559v-57.391c0-16.536-3.096-23.939-14.641-23.939c-14.481,0-18.604,9.988-18.604,30.66v50.67h-11.559v-90.477h10.686V474.563z"
	/>
<path fill="#A9A6A1" d="M1209.563,493.688v-1.557c0-13.27-4.295-18.094-15.854-18.094c-14.653,0-16.536,6.209-16.536,24.303v21.547
	c0,18.094,2.068,24.643,17.065,24.643c13.768,0,16.877-5.165,16.877-19.823v-3.606h12.057v3.779
	c0,22.062-8.771,31.189-28.422,31.189c-22.247,0-29.651-9.472-29.651-36.182v-21.361c0-26.729,7.594-36.028,29.823-36.028
	c18.777,0,26.697,7.761,26.697,26.882v4.309H1209.563z"/>
<path fill="#A9A6A1" d="M1245.116,511.791v8.259c0,18.451,1.711,24.488,17.393,24.488c13.952,0,18.794-3.281,18.794-15.337v-2.77
	h10.84v2.77c0,19.474-9.288,26.882-29.634,26.882c-22.23,0-29.48-9.834-29.48-36.372V498.35c0-26.728,7.422-35.843,29.665-35.843
	c22.217,0,29.449,9.305,29.449,35.843v13.441H1245.116z M1280.601,501.102v-6.549c0-16.021-3.611-21.356-17.749-21.356
	c-13.957,0-17.736,5.336-17.736,21.356v6.549H1280.601z"/>
<path fill="#A9A6A1" d="M1387.341,487.493v-2.412c0-8.961-2.924-11.885-11.713-11.885h-5.865c-9.477,0-12.93,2.734-12.93,11.368
	v8.604c0,6.381,3.453,8.276,21.203,10.173c17.237,1.9,21.718,8.104,21.718,19.821v12.057c0,14.143-7.762,20.863-23.786,20.863
	h-10.174c-17.048,0-22.058-5.354-22.058-21.379v-9.128h11.386v5.503c0,10.518,1.2,14.314,11.713,14.314h8.092
	c9.318,0,12.758-2.924,12.758-11.545v-8.445c0-9.305-3.612-10.173-19.994-12.757c-16.365-2.585-22.913-4.652-22.913-17.238v-12.056
	c0-14.125,7.761-20.846,23.786-20.846h8.088c17.065,0,22.062,5.336,22.062,21.361v3.625H1387.341z"/>
<path fill="#A9A6A1" d="M1470.608,519.716c0,26.715-7.25,36.358-29.467,36.358c-22.23,0-29.807-9.644-29.807-36.187v-21.375
	c0-26.71,7.748-36.015,29.965-36.015c22.244,0,29.309,9.305,29.309,35.843V519.716z M1423.391,519.888
	c0,18.266,2.398,24.643,17.75,24.643c15.152,0,17.41-6.205,17.41-24.471v-21.547c0-18.266-2.068-24.47-17.41-24.47
	c-15.166,0-17.75,6.037-17.75,24.298V519.888z"/>
<rect x="1483.934" y="423.206" fill="#A9A6A1" width="11.545" height="131.316"/>
<path fill="#A9A6A1" d="M1521.338,464.05v57.39c0,16.537,3.268,23.954,14.808,23.954c14.486,0,18.45-10.001,18.45-30.674v-50.67
	h11.545v90.477h-10.689v-10.518c-4.652,8.105-11.884,12.074-22.058,12.074c-17.409,0-23.601-9.662-23.601-31.547V464.05H1521.338z"
	/>
<path fill="#A9A6A1" d="M1595.291,463.874h29.312v10.689h-29.312v51.863c0,13.459,0.688,18.967,10.861,18.967
	c7.934,0,10.518-4.141,10.518-13.441v-8.621h10.328v6.549c0,18.266-6.038,26.199-22.23,26.199c-16.894,0-21.017-7.934-21.017-26.027
	v-55.488h-9.305v-10.689h9.305v-21.719h11.54V463.874z"/>
<path fill="#A9A6A1" d="M1636.36,431.651h11.544v15.17h-11.544V431.651z M1647.904,554.522h-11.544v-90.481h11.544V554.522z"/>
<path fill="#A9A6A1" d="M1720.459,519.716c0,26.715-7.25,36.358-29.467,36.358c-22.23,0-29.807-9.644-29.807-36.187v-21.375
	c0-26.71,7.748-36.015,29.965-36.015c22.244,0,29.309,9.305,29.309,35.843V519.716z M1673.243,519.888
	c0,18.266,2.395,24.643,17.75,24.643c15.152,0,17.41-6.205,17.41-24.471v-21.547c0-18.266-2.068-24.47-17.41-24.47
	c-15.166,0-17.75,6.037-17.75,24.298V519.888z"/>
<path fill="#A9A6A1" d="M1744.448,474.563c4.653-8.105,11.902-12.057,22.063-12.057c17.406,0,23.615,9.645,23.615,31.529v60.486
	h-11.559v-57.391c0-16.536-3.096-23.939-14.641-23.939c-14.481,0-18.604,9.988-18.604,30.66v50.67h-11.559v-90.477h10.685V474.563z"
	/>
<path fill="#A9A6A1" d="M1846.346,487.493v-2.412c0-8.961-2.928-11.885-11.717-11.885h-5.865c-9.473,0-12.926,2.734-12.926,11.368
	v8.604c0,6.381,3.453,8.276,21.203,10.173c17.238,1.9,21.719,8.104,21.719,19.821v12.057c0,14.143-7.766,20.863-23.787,20.863
	h-10.174c-17.053,0-22.063-5.354-22.063-21.379v-9.128h11.391v5.503c0,10.518,1.195,14.314,11.713,14.314h8.092
	c9.318,0,12.754-2.924,12.754-11.545v-8.445c0-9.305-3.607-10.173-19.99-12.757c-16.365-2.585-22.914-4.652-22.914-17.238v-12.056
	c0-14.125,7.762-20.846,23.787-20.846h8.088c17.066,0,22.059,5.336,22.059,21.361v3.625H1846.346z"/>
</svg>
